<svg width="244" height="84" viewBox="0 0 244 84" fill="none" xmlns="http://www.w3.org/2000/svg">
<path d="M75.6906 0C74.871 0 73.8875 0.328125 72.904 0.65625L4.71515 32.1562C-3.15279 35.7656 -0.530143 47.4141 7.82955 47.4141H36.6787V76.2891C36.6787 81.2109 40.7766 84 44.7105 84C47.4971 84 50.4476 82.6875 51.9228 79.4062L83.3946 11.1562C85.6894 5.74219 81.0998 0 75.6906 0ZM78.641 9.02344L61.6322 44.625L47.1693 77.1094C46.6775 78.2578 45.8579 78.9141 44.7105 78.9141C43.727 78.9141 41.924 78.2578 41.924 76.2891V42H7.86794C6.55662 42 5.2453 40.6875 5.2453 39.375C5.2453 38.0625 6.55662 36.75 7.86794 36.75L61.6322 44.625L74.871 5.57812C75.1988 5.41406 75.5266 5.25 75.6906 5.25C76.674 5.25 77.6575 5.90625 78.3132 6.89062C78.641 7.38281 78.9689 8.20312 78.641 9.02344Z" fill="url(#paint0_linear_1242_376)"/>
<path d="M102.16 68.72C99.44 68.72 96.9867 68.1867 94.8 67.12C92.6667 66.0533 90.9867 64.6133 89.76 62.8C88.5333 60.9867 87.92 58.9333 87.92 56.64C87.92 53.76 88.64 51.4933 90.08 49.84C91.5733 48.1333 94 46.9333 97.36 46.24C100.773 45.4933 105.36 45.12 111.12 45.12H114.88V50.08H111.2C107.36 50.08 104.32 50.2667 102.08 50.64C99.84 51.0133 98.24 51.6533 97.28 52.56C96.3733 53.4133 95.92 54.6133 95.92 56.16C95.92 58.1867 96.6133 59.84 98 61.12C99.3867 62.3467 101.307 62.96 103.76 62.96C105.733 62.96 107.467 62.5067 108.96 61.6C110.453 60.64 111.627 59.36 112.48 57.76C113.387 56.16 113.84 54.32 113.84 52.24V43.04C113.84 40 113.2 37.8133 111.92 36.48C110.64 35.1467 108.533 34.48 105.6 34.48C103.893 34.48 102.107 34.6933 100.24 35.12C98.4267 35.5467 96.5333 36.2667 94.56 37.28C93.6533 37.7067 92.88 37.84 92.24 37.68C91.6 37.52 91.0933 37.1733 90.72 36.64C90.3467 36.0533 90.1333 35.44 90.08 34.8C90.08 34.1067 90.24 33.44 90.56 32.8C90.9333 32.16 91.5467 31.68 92.4 31.36C94.7467 30.24 97.0667 29.44 99.36 28.96C101.653 28.48 103.813 28.24 105.84 28.24C109.413 28.24 112.347 28.8 114.64 29.92C116.987 31.04 118.72 32.7467 119.84 35.04C120.96 37.3333 121.52 40.2933 121.52 43.92V64.48C121.52 65.76 121.2 66.7733 120.56 67.52C119.92 68.2133 118.987 68.56 117.76 68.56C116.587 68.56 115.653 68.2133 114.96 67.52C114.267 66.7733 113.92 65.76 113.92 64.48V59.28H114.64C114.213 61.2533 113.413 62.96 112.24 64.4C111.12 65.7867 109.707 66.8533 108 67.6C106.293 68.3467 104.347 68.72 102.16 68.72ZM136.649 68.56C135.369 68.56 134.382 68.2133 133.689 67.52C132.995 66.7733 132.649 65.76 132.649 64.48V15.12C132.649 13.7867 132.995 12.7733 133.689 12.08C134.382 11.3867 135.369 11.04 136.649 11.04C137.929 11.04 138.915 11.3867 139.609 12.08C140.355 12.7733 140.729 13.7867 140.729 15.12V46H140.889L155.849 31.12C156.702 30.2667 157.475 29.6 158.169 29.12C158.862 28.64 159.769 28.4 160.889 28.4C162.009 28.4 162.862 28.6933 163.449 29.28C164.035 29.8667 164.329 30.5867 164.329 31.44C164.329 32.24 163.929 33.0667 163.129 33.92L147.289 49.6V45.84L164.569 63.04C165.422 63.8933 165.822 64.7467 165.769 65.6C165.715 66.4533 165.369 67.1733 164.729 67.76C164.089 68.2933 163.289 68.56 162.329 68.56C161.102 68.56 160.115 68.32 159.369 67.84C158.675 67.36 157.849 66.64 156.889 65.68L140.889 50.16H140.729V64.48C140.729 67.2 139.369 68.56 136.649 68.56ZM189.445 68.72C186.245 68.72 183.552 68.16 181.365 67.04C179.178 65.92 177.552 64.2667 176.485 62.08C175.418 59.8933 174.885 57.2267 174.885 54.08V35.2H170.085C169.018 35.2 168.192 34.9333 167.605 34.4C167.018 33.8133 166.725 33.04 166.725 32.08C166.725 31.0667 167.018 30.2933 167.605 29.76C168.192 29.2267 169.018 28.96 170.085 28.96H174.885V20.72C174.885 19.3867 175.232 18.3733 175.925 17.68C176.672 16.9867 177.685 16.64 178.965 16.64C180.245 16.64 181.232 16.9867 181.925 17.68C182.618 18.3733 182.965 19.3867 182.965 20.72V28.96H192.325C193.392 28.96 194.218 29.2267 194.805 29.76C195.392 30.2933 195.685 31.0667 195.685 32.08C195.685 33.04 195.392 33.8133 194.805 34.4C194.218 34.9333 193.392 35.2 192.325 35.2H182.965V53.44C182.965 56.2667 183.552 58.4 184.725 59.84C185.952 61.28 187.925 62 190.645 62C191.605 62 192.432 61.92 193.125 61.76C193.872 61.5467 194.485 61.4133 194.965 61.36C195.552 61.36 196.032 61.5733 196.405 62C196.778 62.3733 196.965 63.12 196.965 64.24C196.965 65.04 196.805 65.7867 196.485 66.48C196.218 67.1733 195.712 67.6267 194.965 67.84C194.325 68.0533 193.445 68.24 192.325 68.4C191.258 68.6133 190.298 68.72 189.445 68.72ZM218.593 68.72C214.646 68.72 211.233 67.8933 208.353 66.24C205.526 64.5867 203.313 62.24 201.713 59.2C200.113 56.16 199.313 52.5867 199.313 48.48C199.313 45.3333 199.766 42.5333 200.673 40.08C201.58 37.6267 202.86 35.52 204.513 33.76C206.22 31.9467 208.246 30.5867 210.593 29.68C212.993 28.72 215.66 28.24 218.593 28.24C222.486 28.24 225.846 29.0667 228.673 30.72C231.553 32.3733 233.793 34.72 235.393 37.76C236.993 40.7467 237.793 44.32 237.793 48.48C237.793 51.5733 237.34 54.3733 236.433 56.88C235.526 59.3867 234.22 61.52 232.513 63.28C230.86 65.04 228.833 66.4 226.433 67.36C224.086 68.2667 221.473 68.72 218.593 68.72ZM218.593 62.48C220.78 62.48 222.7 61.9467 224.353 60.88C226.006 59.8133 227.286 58.24 228.193 56.16C229.153 54.08 229.633 51.52 229.633 48.48C229.633 43.8933 228.62 40.4267 226.593 38.08C224.566 35.7333 221.9 34.56 218.593 34.56C216.353 34.56 214.406 35.0933 212.753 36.16C211.1 37.1733 209.793 38.72 208.833 40.8C207.926 42.88 207.473 45.44 207.473 48.48C207.473 53.0133 208.486 56.48 210.513 58.88C212.54 61.28 215.233 62.48 218.593 62.48Z" fill="#6200EA"/>
<defs>
<linearGradient id="paint0_linear_1242_376" x1="84" y1="4.01586e-06" x2="16.625" y2="68.25" gradientUnits="userSpaceOnUse">
<stop stop-color="#D500F9"/>
<stop offset="0.5" stop-color="#6200EA"/>
<stop offset="1" stop-color="#2E006D"/>
</linearGradient>
</defs>
</svg>
